<svg xmlns="http://www.w3.org/2000/svg" viewBox="0 0 512 512" role="img" aria-label="AR-115 莲华净境纹">
<defs><filter id="glow"><feGaussianBlur stdDeviation="2.2" result="b"/><feMerge><feMergeNode in="b"/><feMergeNode in="SourceGraphic"/></feMerge></filter></defs>
<rect width="512" height="512" fill="#050914"/><rect x="18" y="18" width="476" height="476" rx="38" fill="#07101f" stroke="#d75f52" stroke-width="7"/><rect x="42" y="42" width="428" height="428" rx="28" fill="none" stroke="#f5d0a0" stroke-width="2" opacity=".45"/><path d="M256 68 C120 130, 392 372, 256 444" fill="none" stroke="#f5d0a0" stroke-width="2" opacity=".16" transform="rotate(0 256 256)"/><path d="M256 68 C120 175, 317 346, 256 444" fill="none" stroke="#f5d0a0" stroke-width="2" opacity=".16" transform="rotate(45 256 256)"/><path d="M256 68 C120 220, 392 320, 256 444" fill="none" stroke="#f5d0a0" stroke-width="2" opacity=".16" transform="rotate(90 256 256)"/><path d="M256 68 C120 160, 317 294, 256 444" fill="none" stroke="#f5d0a0" stroke-width="2" opacity=".16" transform="rotate(135 256 256)"/><path d="M256 68 C120 205, 392 372, 256 444" fill="none" stroke="#f5d0a0" stroke-width="2" opacity=".16" transform="rotate(180 256 256)"/><path d="M256 68 C120 145, 317 346, 256 444" fill="none" stroke="#f5d0a0" stroke-width="2" opacity=".16" transform="rotate(225 256 256)"/><path d="M256 68 C120 190, 392 320, 256 444" fill="none" stroke="#f5d0a0" stroke-width="2" opacity=".16" transform="rotate(270 256 256)"/><path d="M256 68 C120 130, 317 294, 256 444" fill="none" stroke="#f5d0a0" stroke-width="2" opacity=".16" transform="rotate(315 256 256)"/><ellipse cx="256" cy="146" rx="42" ry="86" fill="none" stroke="#d75f52" stroke-width="8" transform="rotate(0 256 256)"/><ellipse cx="256" cy="146" rx="42" ry="86" fill="none" stroke="#d75f52" stroke-width="8" transform="rotate(30 256 256)"/><ellipse cx="256" cy="146" rx="42" ry="86" fill="none" stroke="#d75f52" stroke-width="8" transform="rotate(60 256 256)"/><ellipse cx="256" cy="146" rx="42" ry="86" fill="none" stroke="#d75f52" stroke-width="8" transform="rotate(90 256 256)"/><ellipse cx="256" cy="146" rx="42" ry="86" fill="none" stroke="#d75f52" stroke-width="8" transform="rotate(120 256 256)"/><ellipse cx="256" cy="146" rx="42" ry="86" fill="none" stroke="#d75f52" stroke-width="8" transform="rotate(150 256 256)"/><ellipse cx="256" cy="146" rx="42" ry="86" fill="none" stroke="#d75f52" stroke-width="8" transform="rotate(180 256 256)"/><ellipse cx="256" cy="146" rx="42" ry="86" fill="none" stroke="#d75f52" stroke-width="8" transform="rotate(210 256 256)"/><ellipse cx="256" cy="146" rx="42" ry="86" fill="none" stroke="#d75f52" stroke-width="8" transform="rotate(240 256 256)"/><ellipse cx="256" cy="146" rx="42" ry="86" fill="none" stroke="#d75f52" stroke-width="8" transform="rotate(270 256 256)"/><ellipse cx="256" cy="146" rx="42" ry="86" fill="none" stroke="#d75f52" stroke-width="8" transform="rotate(300 256 256)"/><ellipse cx="256" cy="146" rx="42" ry="86" fill="none" stroke="#d75f52" stroke-width="8" transform="rotate(330 256 256)"/><circle cx="256" cy="256" r="54" fill="none" stroke="#f5d0a0" stroke-width="10"/>
<circle cx="256" cy="256" r="9" fill="#f5d0a0" filter="url(#glow)"/>
<text x="256" y="466" text-anchor="middle" fill="#f6e8be" font-family="serif" font-size="26" letter-spacing="3">AR-115</text>
</svg>
