<svg xmlns="http://www.w3.org/2000/svg" viewBox="0 0 512 512" role="img" aria-label="AR-112 日月同辉纹">
 <defs>
  <filter id="thread" x="-20%" y="-20%" width="140%" height="140%"><feTurbulence type="fractalNoise" baseFrequency="0.9" numOctaves="2" seed="8" result="noise"/><feDisplacementMap in="SourceGraphic" in2="noise" scale="1.2"/></filter>
  <linearGradient id="silk" x1="0" y1="0" x2="1" y2="1"><stop stop-color="#07101f"/><stop offset=".55" stop-color="#101a2e"/><stop offset="1" stop-color="#050914"/></linearGradient>
  <linearGradient id="gold" x1="0" x2="1"><stop stop-color="#edcf7a"/><stop offset=".5" stop-color="#fff1b8"/><stop offset="1" stop-color="#edcf7a"/></linearGradient>
  <pattern id="stitch" width="18" height="18" patternUnits="userSpaceOnUse"><path d="M1 9h16" stroke="rgba(255,255,255,.08)" stroke-width="1"/><path d="M9 1v16" stroke="rgba(197,160,89,.08)" stroke-width="1"/></pattern>
 </defs>
 <rect width="512" height="512" rx="42" fill="url(#silk)"/>
 <rect width="512" height="512" rx="42" fill="url(#stitch)" opacity=".75"/>
 <rect x="20" y="20" width="472" height="472" rx="34" fill="none" stroke="url(#gold)" stroke-width="6"/>
 <rect x="42" y="42" width="428" height="428" rx="28" fill="none" stroke="#8d5a24" stroke-width="2" opacity=".58"/>
 <path d="M72 84h368M72 428h368M84 72v368M428 72v368" stroke="#edcf7a" stroke-width="3" stroke-linecap="round" opacity=".32"/>
 <text x="256" y="462" text-anchor="middle" fill="#f6e8be" font-family="serif" font-size="24" letter-spacing="3">AR-112</text>
 <text x="256" y="488" text-anchor="middle" fill="#edcf7a" font-family="serif" font-size="15" letter-spacing="2">日月同辉纹</text>
 <g><g opacity=".18" stroke="#89f7c3" stroke-width="1"><path d="M96 256h320M256 96v320"/><circle cx="256" cy="256" r="150" fill="none"/><circle cx="256" cy="256" r="92" fill="none"/></g>
 <circle cx="212" cy="246" r="74" fill="none" stroke="url(#gold)" stroke-width="14"/><path d="M326 166c-46 34-51 114 0 158 38 32 84 30 112 4-79 4-116-100-46-160-20-12-45-13-66-2Z" fill="none" stroke="url(#gold)" stroke-width="14"/>
 <path d="M110 372h292" stroke="#8d5a24" stroke-width="10" stroke-linecap="round"/></g>
</svg>
