<svg xmlns="http://www.w3.org/2000/svg" viewBox="0 0 512 512" role="img" aria-label="AR-110 云雷几何纹">
 <defs>
  <filter id="thread" x="-20%" y="-20%" width="140%" height="140%"><feTurbulence type="fractalNoise" baseFrequency="0.9" numOctaves="2" seed="8" result="noise"/><feDisplacementMap in="SourceGraphic" in2="noise" scale="1.2"/></filter>
  <linearGradient id="silk" x1="0" y1="0" x2="1" y2="1"><stop stop-color="#07101f"/><stop offset=".55" stop-color="#101a2e"/><stop offset="1" stop-color="#050914"/></linearGradient>
  <linearGradient id="gold" x1="0" x2="1"><stop stop-color="#d6b561"/><stop offset=".5" stop-color="#fff1b8"/><stop offset="1" stop-color="#d6b561"/></linearGradient>
  <pattern id="stitch" width="18" height="18" patternUnits="userSpaceOnUse"><path d="M1 9h16" stroke="rgba(255,255,255,.08)" stroke-width="1"/><path d="M9 1v16" stroke="rgba(197,160,89,.08)" stroke-width="1"/></pattern>
 </defs>
 <rect width="512" height="512" rx="42" fill="url(#silk)"/>
 <rect width="512" height="512" rx="42" fill="url(#stitch)" opacity=".75"/>
 <rect x="20" y="20" width="472" height="472" rx="34" fill="none" stroke="url(#gold)" stroke-width="6"/>
 <rect x="42" y="42" width="428" height="428" rx="28" fill="none" stroke="#5a3f79" stroke-width="2" opacity=".58"/>
 <path d="M72 84h368M72 428h368M84 72v368M428 72v368" stroke="#d6b561" stroke-width="3" stroke-linecap="round" opacity=".32"/>
 <text x="256" y="462" text-anchor="middle" fill="#f6e8be" font-family="serif" font-size="24" letter-spacing="3">AR-110</text>
 <text x="256" y="488" text-anchor="middle" fill="#d6b561" font-family="serif" font-size="15" letter-spacing="2">云雷几何纹</text>
 <g><g opacity=".18" stroke="#89f7c3" stroke-width="1"><path d="M96 256h320M256 96v320"/><circle cx="256" cy="256" r="150" fill="none"/><circle cx="256" cy="256" r="92" fill="none"/></g>
 <path d="M128 170h104v70h-58v88h164v-76h-62v-82h110" fill="none" stroke="url(#gold)" stroke-width="18" stroke-linecap="square" stroke-linejoin="round" filter="url(#thread)"/>
 <path d="M118 380h276" stroke="#5a3f79" stroke-width="10" stroke-linecap="round"/></g>
</svg>
