<svg xmlns="http://www.w3.org/2000/svg" viewBox="0 0 512 512" role="img" aria-label="AR-103 水流丰收纹">
 <defs>
  <filter id="thread" x="-20%" y="-20%" width="140%" height="140%"><feTurbulence type="fractalNoise" baseFrequency="0.9" numOctaves="2" seed="8" result="noise"/><feDisplacementMap in="SourceGraphic" in2="noise" scale="1.2"/></filter>
  <linearGradient id="silk" x1="0" y1="0" x2="1" y2="1"><stop stop-color="#07101f"/><stop offset=".55" stop-color="#101a2e"/><stop offset="1" stop-color="#050914"/></linearGradient>
  <linearGradient id="gold" x1="0" x2="1"><stop stop-color="#d9b764"/><stop offset=".5" stop-color="#fff1b8"/><stop offset="1" stop-color="#d9b764"/></linearGradient>
  <pattern id="stitch" width="18" height="18" patternUnits="userSpaceOnUse"><path d="M1 9h16" stroke="rgba(255,255,255,.08)" stroke-width="1"/><path d="M9 1v16" stroke="rgba(197,160,89,.08)" stroke-width="1"/></pattern>
 </defs>
 <rect width="512" height="512" rx="42" fill="url(#silk)"/>
 <rect width="512" height="512" rx="42" fill="url(#stitch)" opacity=".75"/>
 <rect x="20" y="20" width="472" height="472" rx="34" fill="none" stroke="url(#gold)" stroke-width="6"/>
 <rect x="42" y="42" width="428" height="428" rx="28" fill="none" stroke="#2e6f7e" stroke-width="2" opacity=".58"/>
 <path d="M72 84h368M72 428h368M84 72v368M428 72v368" stroke="#d9b764" stroke-width="3" stroke-linecap="round" opacity=".32"/>
 <text x="256" y="462" text-anchor="middle" fill="#f6e8be" font-family="serif" font-size="24" letter-spacing="3">AR-103</text>
 <text x="256" y="488" text-anchor="middle" fill="#d9b764" font-family="serif" font-size="15" letter-spacing="2">水流丰收纹</text>
 <g><g opacity=".18" stroke="#89f7c3" stroke-width="1"><path d="M96 256h320M256 96v320"/><circle cx="256" cy="256" r="150" fill="none"/><circle cx="256" cy="256" r="92" fill="none"/></g>
 <path d="M82 180c44-38 86 38 130 0s86-38 130 0 64 23 94 0" fill="none" stroke="url(#gold)" stroke-width="11" stroke-linecap="round" filter="url(#thread)"/>
 <path d="M82 224c44-38 86 38 130 0s86-38 130 0 64 23 94 0" fill="none" stroke="url(#gold)" stroke-width="11" stroke-linecap="round" filter="url(#thread)"/>
 <path d="M82 268c44-38 86 38 130 0s86-38 130 0 64 23 94 0" fill="none" stroke="url(#gold)" stroke-width="11" stroke-linecap="round" filter="url(#thread)"/>
 <path d="M82 312c44-38 86 38 130 0s86-38 130 0 64 23 94 0" fill="none" stroke="url(#gold)" stroke-width="11" stroke-linecap="round" filter="url(#thread)"/>
 <path d="M154 338c-16 30-5 52 20 68" fill="none" stroke="#2e6f7e" stroke-width="8" stroke-linecap="round"/>
 <path d="M256 338c-16 30-5 52 20 68" fill="none" stroke="#2e6f7e" stroke-width="8" stroke-linecap="round"/>
 <path d="M358 338c-16 30-5 52 20 68" fill="none" stroke="#2e6f7e" stroke-width="8" stroke-linecap="round"/></g>
</svg>
