<svg xmlns="http://www.w3.org/2000/svg" viewBox="0 0 512 512" role="img" aria-label="AR-102 雪山守护纹">
<defs><filter id="glow"><feGaussianBlur stdDeviation="2.2" result="b"/><feMerge><feMergeNode in="b"/><feMergeNode in="SourceGraphic"/></feMerge></filter></defs>
<rect width="512" height="512" fill="#050914"/><rect x="18" y="18" width="476" height="476" rx="38" fill="#07101f" stroke="#8fb8ff" stroke-width="7"/><rect x="42" y="42" width="428" height="428" rx="28" fill="none" stroke="#4cb07a" stroke-width="2" opacity=".45"/><path d="M256 68 C120 130, 392 372, 256 444" fill="none" stroke="#4cb07a" stroke-width="2" opacity=".16" transform="rotate(0 256 256)"/><path d="M256 68 C120 175, 317 346, 256 444" fill="none" stroke="#4cb07a" stroke-width="2" opacity=".16" transform="rotate(45 256 256)"/><path d="M256 68 C120 220, 392 320, 256 444" fill="none" stroke="#4cb07a" stroke-width="2" opacity=".16" transform="rotate(90 256 256)"/><path d="M256 68 C120 160, 317 294, 256 444" fill="none" stroke="#4cb07a" stroke-width="2" opacity=".16" transform="rotate(135 256 256)"/><path d="M256 68 C120 205, 392 372, 256 444" fill="none" stroke="#4cb07a" stroke-width="2" opacity=".16" transform="rotate(180 256 256)"/><path d="M256 68 C120 145, 317 346, 256 444" fill="none" stroke="#4cb07a" stroke-width="2" opacity=".16" transform="rotate(225 256 256)"/><path d="M256 68 C120 190, 392 320, 256 444" fill="none" stroke="#4cb07a" stroke-width="2" opacity=".16" transform="rotate(270 256 256)"/><path d="M256 68 C120 130, 317 294, 256 444" fill="none" stroke="#4cb07a" stroke-width="2" opacity=".16" transform="rotate(315 256 256)"/><path d="M82 170 L154 102 L218 170 L282 100 L352 170 L430 96" fill="none" stroke="#8fb8ff" stroke-width="11" stroke-linejoin="round"/><path d="M82 218 L154 150 L218 218 L282 148 L352 218 L430 144" fill="none" stroke="#8fb8ff" stroke-width="11" stroke-linejoin="round"/><path d="M82 266 L154 198 L218 266 L282 196 L352 266 L430 192" fill="none" stroke="#8fb8ff" stroke-width="11" stroke-linejoin="round"/><path d="M82 314 L154 246 L218 314 L282 244 L352 314 L430 240" fill="none" stroke="#8fb8ff" stroke-width="11" stroke-linejoin="round"/>
<circle cx="256" cy="256" r="9" fill="#4cb07a" filter="url(#glow)"/>
<text x="256" y="466" text-anchor="middle" fill="#f6e8be" font-family="serif" font-size="26" letter-spacing="3">AR-102</text>
</svg>