<svg xmlns="http://www.w3.org/2000/svg" viewBox="0 0 512 512" role="img" aria-label="AR-104 蝶榴新生纹">
<defs><filter id="glow"><feGaussianBlur stdDeviation="2.2" result="b"/><feMerge><feMergeNode in="b"/><feMergeNode in="SourceGraphic"/></feMerge></filter></defs>
<rect width="512" height="512" fill="#050914"/><rect x="18" y="18" width="476" height="476" rx="38" fill="#07101f" stroke="#4cb07a" stroke-width="7"/><rect x="42" y="42" width="428" height="428" rx="28" fill="none" stroke="#c5a059" stroke-width="2" opacity=".45"/><path d="M256 68 C120 130, 392 372, 256 444" fill="none" stroke="#c5a059" stroke-width="2" opacity=".16" transform="rotate(0 256 256)"/><path d="M256 68 C120 175, 317 346, 256 444" fill="none" stroke="#c5a059" stroke-width="2" opacity=".16" transform="rotate(45 256 256)"/><path d="M256 68 C120 220, 392 320, 256 444" fill="none" stroke="#c5a059" stroke-width="2" opacity=".16" transform="rotate(90 256 256)"/><path d="M256 68 C120 160, 317 294, 256 444" fill="none" stroke="#c5a059" stroke-width="2" opacity=".16" transform="rotate(135 256 256)"/><path d="M256 68 C120 205, 392 372, 256 444" fill="none" stroke="#c5a059" stroke-width="2" opacity=".16" transform="rotate(180 256 256)"/><path d="M256 68 C120 145, 317 346, 256 444" fill="none" stroke="#c5a059" stroke-width="2" opacity=".16" transform="rotate(225 256 256)"/><path d="M256 68 C120 190, 392 320, 256 444" fill="none" stroke="#c5a059" stroke-width="2" opacity=".16" transform="rotate(270 256 256)"/><path d="M256 68 C120 130, 317 294, 256 444" fill="none" stroke="#c5a059" stroke-width="2" opacity=".16" transform="rotate(315 256 256)"/><path d="M256 266 C160 112, 78 152, 116 248 C148 326, 216 308, 256 266Z" fill="none" stroke="#4cb07a" stroke-width="11"/><path d="M256 266 C352 112, 434 152, 396 248 C364 326, 296 308, 256 266Z" fill="none" stroke="#4cb07a" stroke-width="11"/><path d="M256 122v268" stroke="#c5a059" stroke-width="14" stroke-linecap="round"/>
<circle cx="256" cy="256" r="9" fill="#c5a059" filter="url(#glow)"/>
<text x="256" y="466" text-anchor="middle" fill="#f6e8be" font-family="serif" font-size="26" letter-spacing="3">AR-104</text>
</svg>