<svg xmlns="http://www.w3.org/2000/svg" viewBox="0 0 512 512" role="img" aria-label="AR-108 星河织带纹">
 <defs>
  <filter id="thread" x="-20%" y="-20%" width="140%" height="140%"><feTurbulence type="fractalNoise" baseFrequency="0.9" numOctaves="2" seed="8" result="noise"/><feDisplacementMap in="SourceGraphic" in2="noise" scale="1.2"/></filter>
  <linearGradient id="silk" x1="0" y1="0" x2="1" y2="1"><stop stop-color="#07101f"/><stop offset=".55" stop-color="#101a2e"/><stop offset="1" stop-color="#050914"/></linearGradient>
  <linearGradient id="gold" x1="0" x2="1"><stop stop-color="#e7c777"/><stop offset=".5" stop-color="#fff1b8"/><stop offset="1" stop-color="#e7c777"/></linearGradient>
  <pattern id="stitch" width="18" height="18" patternUnits="userSpaceOnUse"><path d="M1 9h16" stroke="rgba(255,255,255,.08)" stroke-width="1"/><path d="M9 1v16" stroke="rgba(197,160,89,.08)" stroke-width="1"/></pattern>
 </defs>
 <rect width="512" height="512" rx="42" fill="url(#silk)"/>
 <rect width="512" height="512" rx="42" fill="url(#stitch)" opacity=".75"/>
 <rect x="20" y="20" width="472" height="472" rx="34" fill="none" stroke="url(#gold)" stroke-width="6"/>
 <rect x="42" y="42" width="428" height="428" rx="28" fill="none" stroke="#34538d" stroke-width="2" opacity=".58"/>
 <path d="M72 84h368M72 428h368M84 72v368M428 72v368" stroke="#e7c777" stroke-width="3" stroke-linecap="round" opacity=".32"/>
 <text x="256" y="462" text-anchor="middle" fill="#f6e8be" font-family="serif" font-size="24" letter-spacing="3">AR-108</text>
 <text x="256" y="488" text-anchor="middle" fill="#e7c777" font-family="serif" font-size="15" letter-spacing="2">星河织带纹</text>
 <g><g opacity=".18" stroke="#89f7c3" stroke-width="1"><path d="M96 256h320M256 96v320"/><circle cx="256" cy="256" r="150" fill="none"/><circle cx="256" cy="256" r="92" fill="none"/></g>
 <path d="M256 116v92" transform="rotate(0 256 256)" stroke="url(#gold)" stroke-width="10" stroke-linecap="round"/>
 <path d="M256 116v92" transform="rotate(45 256 256)" stroke="url(#gold)" stroke-width="10" stroke-linecap="round"/>
 <path d="M256 116v92" transform="rotate(90 256 256)" stroke="url(#gold)" stroke-width="10" stroke-linecap="round"/>
 <path d="M256 116v92" transform="rotate(135 256 256)" stroke="url(#gold)" stroke-width="10" stroke-linecap="round"/>
 <path d="M256 116v92" transform="rotate(180 256 256)" stroke="url(#gold)" stroke-width="10" stroke-linecap="round"/>
 <path d="M256 116v92" transform="rotate(225 256 256)" stroke="url(#gold)" stroke-width="10" stroke-linecap="round"/>
 <path d="M256 116v92" transform="rotate(270 256 256)" stroke="url(#gold)" stroke-width="10" stroke-linecap="round"/>
 <path d="M256 116v92" transform="rotate(315 256 256)" stroke="url(#gold)" stroke-width="10" stroke-linecap="round"/>
 <path d="M100 326c86-80 226 80 312 0" fill="none" stroke="#34538d" stroke-width="12" stroke-linecap="round"/>
 <circle cx="256" cy="256" r="46" fill="none" stroke="url(#gold)" stroke-width="12"/></g>
</svg>
