<svg xmlns="http://www.w3.org/2000/svg" viewBox="0 0 512 512" role="img" aria-label="AR-105 羌笛回旋纹">
<defs><filter id="glow"><feGaussianBlur stdDeviation="2.2" result="b"/><feMerge><feMergeNode in="b"/><feMergeNode in="SourceGraphic"/></feMerge></filter></defs>
<rect width="512" height="512" fill="#050914"/><rect x="18" y="18" width="476" height="476" rx="38" fill="#07101f" stroke="#f5d0a0" stroke-width="7"/><rect x="42" y="42" width="428" height="428" rx="28" fill="none" stroke="#e6c36e" stroke-width="2" opacity=".45"/><path d="M256 68 C120 130, 392 372, 256 444" fill="none" stroke="#e6c36e" stroke-width="2" opacity=".16" transform="rotate(0 256 256)"/><path d="M256 68 C120 175, 317 346, 256 444" fill="none" stroke="#e6c36e" stroke-width="2" opacity=".16" transform="rotate(45 256 256)"/><path d="M256 68 C120 220, 392 320, 256 444" fill="none" stroke="#e6c36e" stroke-width="2" opacity=".16" transform="rotate(90 256 256)"/><path d="M256 68 C120 160, 317 294, 256 444" fill="none" stroke="#e6c36e" stroke-width="2" opacity=".16" transform="rotate(135 256 256)"/><path d="M256 68 C120 205, 392 372, 256 444" fill="none" stroke="#e6c36e" stroke-width="2" opacity=".16" transform="rotate(180 256 256)"/><path d="M256 68 C120 145, 317 346, 256 444" fill="none" stroke="#e6c36e" stroke-width="2" opacity=".16" transform="rotate(225 256 256)"/><path d="M256 68 C120 190, 392 320, 256 444" fill="none" stroke="#e6c36e" stroke-width="2" opacity=".16" transform="rotate(270 256 256)"/><path d="M256 68 C120 130, 317 294, 256 444" fill="none" stroke="#e6c36e" stroke-width="2" opacity=".16" transform="rotate(315 256 256)"/><path d="M256 208 A48 48 0 1 1 208 256" fill="none" stroke="#f5d0a0" stroke-width="9" stroke-linecap="round"/><path d="M256 168 A88 88 0 1 1 168 256" fill="none" stroke="#f5d0a0" stroke-width="9" stroke-linecap="round"/><path d="M256 128 A128 128 0 1 1 128 256" fill="none" stroke="#f5d0a0" stroke-width="9" stroke-linecap="round"/><path d="M256 88 A168 168 0 1 1 88 256" fill="none" stroke="#f5d0a0" stroke-width="9" stroke-linecap="round"/>
<circle cx="256" cy="256" r="9" fill="#e6c36e" filter="url(#glow)"/>
<text x="256" y="466" text-anchor="middle" fill="#f6e8be" font-family="serif" font-size="26" letter-spacing="3">AR-105</text>
</svg>
