<svg xmlns="http://www.w3.org/2000/svg" viewBox="0 0 720 420" role="img" aria-label="阿热灵绣高清标识">
  <rect width="720" height="420" rx="44" fill="#07101f"/>
  <rect x="22" y="22" width="676" height="376" rx="34" fill="none" stroke="#c5a059" stroke-width="5" opacity=".65"/>
  <path d="M127 86c-42 34-44 75-9 91 40 18 76 22 74 57-2 43-78 41-92 96" fill="none" stroke="#f6e8be" stroke-width="21" stroke-linecap="round"/>
  <path d="M154 90c46 26 61 65 31 98-26 29-72 35-55 77 10 25 47 26 73 5" fill="none" stroke="#111" stroke-width="16" stroke-linecap="round" opacity=".9"/>
  <g fill="#f6e8be" stroke="#111" stroke-width="12" stroke-linecap="round" stroke-linejoin="round">
    <path d="M310 92v245"/><path d="M252 129h207"/><path d="M250 190h214"/><path d="M276 252h159"/>
    <path d="M506 154v183"/><path d="M474 186h92"/><path d="M474 252h92"/>
    <path d="M341 258c-34 31-34 68 0 88" fill="none"/><path d="M428 258c34 31 34 68 0 88" fill="none"/>
  </g>
  <circle cx="365" cy="336" r="14" fill="#c5a059"/>
  <rect x="80" y="326" width="38" height="58" rx="16" fill="#2f6f48"/><rect x="132" y="326" width="38" height="58" rx="16" fill="#d94437"/><rect x="184" y="326" width="38" height="58" rx="16" fill="#46529a"/>
  <text x="278" y="381" fill="#c5a059" font-family="serif" font-size="30" letter-spacing="8">AR LINGXIU</text>
</svg>
