<svg xmlns="http://www.w3.org/2000/svg" viewBox="0 0 960 640" role="img" aria-label="阿热灵绣品牌标识">
  <defs>
    <filter id="softGlow" x="-30%" y="-30%" width="160%" height="160%">
      <feGaussianBlur stdDeviation="7" result="blur"/>
      <feColorMatrix in="blur" type="matrix" values="1 0 0 0 0.82 0 1 0 0 0.63 0 0 1 0 0.32 0 0 0 .52 0" result="glow"/>
      <feMerge><feMergeNode in="glow"/><feMergeNode in="SourceGraphic"/></feMerge>
    </filter>
    <linearGradient id="ink" x1="0" x2="1" y1="0" y2="1">
      <stop offset="0" stop-color="#fff6d8"/>
      <stop offset="0.48" stop-color="#e7c676"/>
      <stop offset="1" stop-color="#fff0bd"/>
    </linearGradient>
    <linearGradient id="green" x1="0" x2="1"><stop stop-color="#1f7a49"/><stop offset="1" stop-color="#62b06b"/></linearGradient>
    <linearGradient id="red" x1="0" x2="1"><stop stop-color="#d3322b"/><stop offset="1" stop-color="#f06a54"/></linearGradient>
    <linearGradient id="blue" x1="0" x2="1"><stop stop-color="#343b98"/><stop offset="1" stop-color="#6970c8"/></linearGradient>
  </defs>
  <g filter="url(#softGlow)">
    <path d="M142 110c82-44 166-24 151 31-9 32-49 56-83 82-37 28-67 61-48 84 21 25 72 1 98 33 22 27-12 61-58 88-43 25-72 58-74 98" fill="none" stroke="url(#ink)" stroke-width="28" stroke-linecap="round" stroke-linejoin="round"/>
    <path d="M209 215c-54 41-44 82 25 95" fill="none" stroke="#06101e" stroke-width="15" stroke-linecap="round" opacity=".62"/>
    <path d="M164 420c58-18 114-17 176 0" fill="none" stroke="url(#ink)" stroke-width="12" stroke-linecap="round"/>
    <path d="M462 76l18 424" stroke="url(#ink)" stroke-width="35" stroke-linecap="round"/>
    <path d="M328 154h246" stroke="url(#ink)" stroke-width="31" stroke-linecap="round"/>
    <path d="M316 248h394" stroke="url(#ink)" stroke-width="31" stroke-linecap="round"/>
    <path d="M338 343h236" stroke="url(#ink)" stroke-width="31" stroke-linecap="round"/>
    <path d="M626 154h142q32 0 32 32v14" fill="none" stroke="url(#ink)" stroke-width="31" stroke-linecap="round" stroke-linejoin="round"/>
    <path d="M626 343h153q42 0 42-42v-53" fill="none" stroke="url(#ink)" stroke-width="31" stroke-linecap="round" stroke-linejoin="round"/>
    <path d="M410 420c-42 36-43 78 0 112" fill="none" stroke="url(#ink)" stroke-width="31" stroke-linecap="round"/>
    <path d="M532 420c42 36 43 78 0 112" fill="none" stroke="url(#ink)" stroke-width="31" stroke-linecap="round"/>
    <path d="M654 420c-42 36-43 78 0 112" fill="none" stroke="url(#ink)" stroke-width="31" stroke-linecap="round"/>
    <path d="M776 420c42 36 43 78 0 112" fill="none" stroke="url(#ink)" stroke-width="31" stroke-linecap="round"/>
    <circle cx="480" cy="540" r="17" fill="#06101e" stroke="url(#ink)" stroke-width="10"/>
  </g>
  <g transform="translate(128 500)">
    <rect x="0" y="0" width="58" height="120" rx="24" fill="url(#green)"/>
    <rect x="82" y="0" width="58" height="120" rx="24" fill="url(#red)"/>
    <rect x="164" y="0" width="58" height="120" rx="24" fill="url(#blue)"/>
  </g>
</svg>
